<mxfile host="app.diagrams.net" modified="2021-06-29T07:23:12.351Z" agent="5.0 (Windows)" etag="NuM0JXYTlWoz8IRGEGOX" version="13.9.7" type="github">
  <diagram id="dNbaIeBrV-9rgh9Ormz9" name="Page-1">
    <mxGraphModel dx="1422" dy="762" grid="1" gridSize="10" guides="1" tooltips="1" connect="1" arrows="1" fold="1" page="1" pageScale="1" pageWidth="850" pageHeight="1100" math="0" shadow="0">
      <root>
        <mxCell id="0" />
        <mxCell id="1" parent="0" />
        <mxCell id="gN3dFFLg4LB784GI42-n-17" value="" style="edgeStyle=orthogonalEdgeStyle;rounded=0;orthogonalLoop=1;jettySize=auto;html=1;" parent="1" source="gN3dFFLg4LB784GI42-n-1" target="gN3dFFLg4LB784GI42-n-9" edge="1">
          <mxGeometry relative="1" as="geometry" />
        </mxCell>
        <mxCell id="gN3dFFLg4LB784GI42-n-1" value="" style="points=[[0,0,0],[0.25,0,0],[0.5,0,0],[0.75,0,0],[1,0,0],[0,1,0],[0.25,1,0],[0.5,1,0],[0.75,1,0],[1,1,0],[0,0.25,0],[0,0.5,0],[0,0.75,0],[1,0.25,0],[1,0.5,0],[1,0.75,0]];outlineConnect=0;fontColor=#232F3E;gradientColor=#F78E04;gradientDirection=north;fillColor=#D05C17;strokeColor=#ffffff;dashed=0;verticalLabelPosition=bottom;verticalAlign=top;align=center;html=1;fontSize=12;fontStyle=0;aspect=fixed;shape=mxgraph.aws4.resourceIcon;resIcon=mxgraph.aws4.lambda;" parent="1" vertex="1">
          <mxGeometry x="540" y="440" width="78" height="78" as="geometry" />
        </mxCell>
        <mxCell id="gN3dFFLg4LB784GI42-n-2" value="" style="points=[[0,0,0],[0.25,0,0],[0.5,0,0],[0.75,0,0],[1,0,0],[0,1,0],[0.25,1,0],[0.5,1,0],[0.75,1,0],[1,1,0],[0,0.25,0],[0,0.5,0],[0,0.75,0],[1,0.25,0],[1,0.5,0],[1,0.75,0]];outlineConnect=0;fontColor=#232F3E;gradientColor=#F78E04;gradientDirection=north;fillColor=#D05C17;strokeColor=#ffffff;dashed=0;verticalLabelPosition=bottom;verticalAlign=top;align=center;html=1;fontSize=12;fontStyle=0;aspect=fixed;shape=mxgraph.aws4.resourceIcon;resIcon=mxgraph.aws4.lambda;" parent="1" vertex="1">
          <mxGeometry x="320" y="260" width="78" height="78" as="geometry" />
        </mxCell>
        <mxCell id="gN3dFFLg4LB784GI42-n-16" value="" style="edgeStyle=orthogonalEdgeStyle;rounded=0;orthogonalLoop=1;jettySize=auto;html=1;" parent="1" source="gN3dFFLg4LB784GI42-n-4" target="gN3dFFLg4LB784GI42-n-1" edge="1">
          <mxGeometry relative="1" as="geometry" />
        </mxCell>
        <mxCell id="gN3dFFLg4LB784GI42-n-4" value="" style="points=[[0,0,0],[0.25,0,0],[0.5,0,0],[0.75,0,0],[1,0,0],[0,1,0],[0.25,1,0],[0.5,1,0],[0.75,1,0],[1,1,0],[0,0.25,0],[0,0.5,0],[0,0.75,0],[1,0.25,0],[1,0.5,0],[1,0.75,0]];outlineConnect=0;fontColor=#232F3E;gradientColor=#F34482;gradientDirection=north;fillColor=#BC1356;strokeColor=#ffffff;dashed=0;verticalLabelPosition=bottom;verticalAlign=top;align=center;html=1;fontSize=12;fontStyle=0;aspect=fixed;shape=mxgraph.aws4.resourceIcon;resIcon=mxgraph.aws4.sqs;" parent="1" vertex="1">
          <mxGeometry x="540" y="269" width="78" height="78" as="geometry" />
        </mxCell>
        <mxCell id="gN3dFFLg4LB784GI42-n-15" value="" style="edgeStyle=orthogonalEdgeStyle;rounded=0;orthogonalLoop=1;jettySize=auto;html=1;" parent="1" source="gN3dFFLg4LB784GI42-n-8" target="gN3dFFLg4LB784GI42-n-2" edge="1">
          <mxGeometry relative="1" as="geometry" />
        </mxCell>
        <mxCell id="gN3dFFLg4LB784GI42-n-8" value="" style="shape=image;html=1;verticalAlign=top;verticalLabelPosition=bottom;labelBackgroundColor=#ffffff;imageAspect=0;aspect=fixed;image=https://cdn2.iconfinder.com/data/icons/amazon-aws-stencils/100/Storage__Content_Delivery_Amazon_S3_Bucket-128.png" parent="1" vertex="1">
          <mxGeometry x="80" y="235" width="128" height="128" as="geometry" />
        </mxCell>
        <mxCell id="gN3dFFLg4LB784GI42-n-9" value="" style="outlineConnect=0;fontColor=#232F3E;gradientColor=none;fillColor=#3334B9;strokeColor=none;dashed=0;verticalLabelPosition=bottom;verticalAlign=top;align=center;html=1;fontSize=12;fontStyle=0;aspect=fixed;pointerEvents=1;shape=mxgraph.aws4.rds_instance_alt;" parent="1" vertex="1">
          <mxGeometry x="540" y="620" width="78" height="78" as="geometry" />
        </mxCell>
        <mxCell id="gN3dFFLg4LB784GI42-n-12" value="" style="shape=singleArrow;whiteSpace=wrap;html=1;arrowWidth=0.4;arrowSize=0.4;dashed=0;fontColor=#232F3E;fontStyle=0;verticalAlign=top;strokeColor=#ffffff;fillColor=#D05C17;gradientColor=#F78E04;gradientDirection=north;" parent="1" vertex="1">
          <mxGeometry x="440" y="278" width="80" height="60" as="geometry" />
        </mxCell>
        <mxCell id="gN3dFFLg4LB784GI42-n-21" value="" style="shape=singleArrow;whiteSpace=wrap;html=1;arrowWidth=0.4;arrowSize=0.4;dashed=0;fontColor=#232F3E;fontStyle=0;verticalAlign=top;strokeColor=#ffffff;fillColor=#D05C17;gradientColor=#F78E04;gradientDirection=north;rotation=90;" parent="1" vertex="1">
          <mxGeometry x="104" y="160" width="80" height="60" as="geometry" />
        </mxCell>
        <mxCell id="NtnSZmsTPRI2J6ae220_-1" value="XML FIle Put" style="text;html=1;align=center;verticalAlign=middle;resizable=0;points=[];autosize=1;" vertex="1" parent="1">
          <mxGeometry x="104" y="110" width="80" height="20" as="geometry" />
        </mxCell>
      </root>
    </mxGraphModel>
  </diagram>
</mxfile>
